<?xml version="1.0" standalone="no"?>
<!DOCTYPE svg PUBLIC "-//W3C//DTD SVG 20010904//EN"
 "http://www.w3.org/TR/2001/REC-SVG-20010904/DTD/svg10.dtd">
<svg version="1.0" xmlns="http://www.w3.org/2000/svg"
 width="512.000000pt" height="512.000000pt" viewBox="0 0 512.000000 512.000000"
 preserveAspectRatio="xMidYMid meet">
<metadata>
Created by potrace 1.11, written by Peter Selinger 2001-2013
</metadata>
<g transform="translate(0.000000,512.000000) scale(0.100000,-0.100000)"
fill="#000000" stroke="none">
<path d="M2430 3727 c-3 -3 -27 -8 -55 -11 -158 -21 -344 -97 -494 -203 -116
-82 -257 -236 -328 -358 -22 -39 -85 -170 -88 -185 -2 -8 -8 -27 -14 -43 -6
-15 -13 -38 -16 -50 -2 -12 -9 -40 -15 -62 -24 -92 -32 -296 -16 -415 15 -116
69 -283 122 -378 67 -120 153 -234 225 -299 80 -72 104 -93 110 -93 3 0 19
-11 35 -25 16 -14 35 -25 42 -25 6 0 12 -4 12 -8 0 -13 157 -87 245 -116 80
-25 99 -30 185 -44 57 -9 314 -9 360 1 19 3 46 9 60 12 14 2 37 7 52 11 15 3
31 6 35 6 5 0 13 3 18 7 6 5 23 11 39 15 49 12 197 87 276 140 91 60 229 197
293 288 83 120 171 321 191 439 26 152 27 328 2 457 -59 299 -262 598 -516
756 -87 55 -216 116 -275 131 -5 1 -17 5 -25 9 -44 19 -220 43 -330 45 -69 1
-128 0 -130 -2z m348 -195 c25 -26 27 -36 27 -103 -1 -77 8 -95 53 -104 9 -2
30 -8 45 -14 40 -16 40 -16 99 38 56 51 78 60 115 45 13 -5 79 -65 147 -132
162 -161 165 -174 65 -269 l-42 -40 27 -72 28 -71 78 0 c68 0 82 -3 107 -24
l29 -24 -1 -190 c-1 -159 -4 -194 -18 -216 -18 -27 -60 -39 -139 -40 -26 -1
-51 -5 -56 -11 -5 -5 -18 -36 -30 -67 l-21 -57 55 -61 c56 -63 60 -73 45 -113
-14 -36 -257 -277 -281 -278 -11 -1 -26 -2 -32 -3 -7 -1 -41 22 -75 51 l-63
52 -67 -23 -67 -23 -1 -83 c-1 -79 -3 -84 -31 -109 l-29 -26 -192 0 c-191 1
-191 1 -212 25 -24 30 -23 26 -25 117 -1 39 -4 73 -6 75 -3 2 -33 16 -67 30
l-61 26 -65 -58 c-50 -44 -71 -57 -92 -55 -15 2 -29 5 -31 8 -2 2 -43 39 -90
83 -113 104 -184 189 -184 220 0 16 18 44 50 78 28 29 50 61 50 71 0 10 -9 43
-21 74 l-20 56 -42 0 c-66 -1 -130 13 -151 35 -18 17 -20 36 -21 212 l-2 193
29 28 c27 25 36 27 106 27 l77 0 19 43 c43 99 44 92 -18 157 -79 82 -77 91 37
208 126 130 164 165 195 179 33 14 49 6 116 -54 47 -42 72 -52 92 -35 5 5 28
15 52 22 23 7 43 18 43 24 1 6 2 45 3 87 2 41 6 81 10 87 13 22 70 29 249 31
l178 2 27 -29z"/>
<path d="M2473 3353 c0 -27 -3 -59 -4 -72 -4 -28 -48 -62 -104 -80 -22 -7 -75
-29 -118 -48 -48 -21 -87 -33 -100 -29 -12 3 -43 25 -69 49 l-48 43 -60 -59
-60 -59 20 -27 c10 -16 26 -34 35 -41 9 -8 23 -26 31 -41 13 -26 12 -33 -20
-101 -18 -40 -44 -101 -56 -136 -30 -83 -55 -102 -134 -102 l-62 0 1 -79 c0
-44 2 -82 5 -84 3 -2 34 -7 70 -10 78 -8 86 -16 128 -125 17 -42 41 -102 55
-132 29 -64 26 -76 -32 -140 -23 -24 -41 -47 -41 -50 0 -3 26 -31 58 -62 l57
-57 53 44 c29 24 62 47 73 50 13 5 46 -5 92 -28 40 -19 102 -45 140 -58 60
-21 68 -28 79 -59 6 -19 13 -53 14 -75 1 -22 2 -43 3 -47 0 -5 37 -8 81 -8 44
0 80 3 81 8 1 4 2 31 4 60 3 74 25 99 115 132 41 15 105 40 142 55 l67 28 33
-26 c18 -14 47 -37 64 -51 l31 -25 57 58 58 59 -46 56 c-60 74 -60 76 -13 176
17 36 31 67 32 70 4 28 43 114 57 126 10 10 43 18 80 21 35 3 65 7 68 10 3 3
5 40 5 84 l1 79 -62 0 c-78 0 -116 27 -133 94 -6 24 -26 77 -44 117 -19 41
-37 81 -40 90 -6 18 10 45 60 107 l32 39 -62 62 c-34 34 -63 57 -65 51 -2 -5
-27 -28 -55 -50 -44 -36 -56 -41 -84 -35 -19 3 -48 14 -66 25 -18 10 -69 32
-113 49 -105 40 -114 52 -117 135 l-2 66 -85 0 -85 0 -2 -47z m196 -423 c90
-24 190 -112 238 -210 24 -48 27 -67 27 -155 0 -86 -4 -108 -26 -155 -60 -132
-187 -220 -325 -224 -124 -4 -208 28 -292 112 -149 151 -150 383 -1 533 99
100 239 137 379 99z"/>
<path d="M2455 2763 c-34 -18 -86 -77 -103 -117 -9 -20 -12 -55 -9 -97 8 -118
86 -195 204 -203 84 -5 176 46 213 118 20 40 20 164 -1 204 -20 39 -67 82
-106 99 -43 18 -160 15 -198 -4z"/>
<path d="M1589 3545 c-157 -58 -463 -209 -631 -310 -276 -167 -646 -456 -821
-643 l-28 -30 68 -67 c110 -108 311 -277 458 -385 33 -24 65 -48 70 -52 33
-27 215 -143 298 -191 211 -122 554 -281 647 -302 33 -7 31 -5 -55 91 -139
156 -235 314 -291 481 -26 77 -31 95 -40 143 -2 14 -6 34 -9 46 -32 141 -24
397 17 549 6 22 11 45 12 50 5 28 43 129 72 194 62 135 127 232 236 346 55 59
92 105 87 109 -2 2 -43 -11 -90 -29z"/>
<path d="M3420 3576 c0 -2 26 -30 58 -62 32 -32 76 -81 98 -109 21 -27 41 -52
44 -55 10 -10 77 -115 104 -163 30 -53 84 -178 91 -211 2 -12 9 -37 15 -56 12
-36 17 -58 25 -100 3 -14 7 -36 10 -50 32 -150 23 -378 -21 -540 -58 -214
-156 -391 -313 -564 -45 -50 -81 -93 -81 -98 0 -14 18 -9 138 38 458 181 948
500 1335 871 102 97 104 77 -13 188 -268 256 -685 553 -975 696 -38 19 -72 36
-75 39 -15 15 -280 131 -280 123 0 -3 -6 -1 -12 4 -12 9 -130 53 -143 53 -3 0
-5 -2 -5 -4z"/>
</g>
</svg>
